<svg xmlns="http://www.w3.org/2000/svg" width="1200" height="630" viewBox="0 0 1200 630">
  <defs>
    <linearGradient id="bg-grad" x1="0" y1="0" x2="1" y2="1">
      <stop offset="0%" stop-color="#080b0f"/>
      <stop offset="100%" stop-color="#0a1220"/>
    </linearGradient>
    <radialGradient id="glow-left" cx="0%" cy="50%" r="70%">
      <stop offset="0%" stop-color="#00c8ff" stop-opacity="0.10"/>
      <stop offset="100%" stop-color="#080b0f" stop-opacity="0"/>
    </radialGradient>
    <pattern id="grid" width="48" height="48" patternUnits="userSpaceOnUse">
      <path d="M 48 0 L 0 0 0 48" fill="none" stroke="#00c8ff" stroke-width="0.5" stroke-opacity="0.10"/>
    </pattern>
    <filter id="text-glow">
      <feGaussianBlur stdDeviation="3" result="blur"/>
      <feMerge><feMergeNode in="blur"/><feMergeNode in="SourceGraphic"/></feMerge>
    </filter>
  </defs>
  <rect width="1200" height="630" fill="url(#bg-grad)"/>
  <rect width="1200" height="630" fill="url(#glow-left)"/>
  <rect width="1200" height="630" fill="url(#grid)"/>
  <rect x="0" y="0" width="5" height="630" fill="#00c8ff"/>
  <rect x="5" y="0" width="1195" height="1" fill="#1e2d3d"/>
  <rect x="5" y="629" width="1195" height="1" fill="#1e2d3d"/>
  <path d="M 70 55 L 70 30 L 95 30" fill="none" stroke="#00c8ff" stroke-width="1.5" opacity="0.7"/>
  <path d="M 1130 55 L 1130 30 L 1105 30" fill="none" stroke="#00c8ff" stroke-width="1.5" opacity="0.7"/>
  <path d="M 70 575 L 70 600 L 95 600" fill="none" stroke="#00c8ff" stroke-width="1.5" opacity="0.7"/>
  <path d="M 1130 575 L 1130 600 L 1105 600" fill="none" stroke="#00c8ff" stroke-width="1.5" opacity="0.7"/>
  <polygon points="95,290 122,275 149,290 149,320 122,335 95,320" fill="none" stroke="#00c8ff" stroke-width="1.5"/>
  <polygon points="103,294 122,283 141,294 141,316 122,327 103,316" fill="#00c8ff" fill-opacity="0.08"/>
  <text x="122" y="310" font-family="Courier New,monospace" font-size="13" font-weight="700" fill="#00c8ff" text-anchor="middle">CA</text>
  <text x="168" y="286" font-family="Courier New,monospace" font-size="11" letter-spacing="5" fill="#00c8ff" opacity="0.7">CISO AI</text>
  <rect x="168" y="296" width="480" height="1" fill="#1e2d3d"/>
  <text x="168" y="314" font-family="Courier New,monospace" font-size="10" letter-spacing="4" fill="#4a6070">// CYBER INTELLIGENCE FEED</text>
  <text x="168" y="395" font-family="Arial Black,Impact,sans-serif" font-size="86" font-weight="900" fill="#e8f0f8" letter-spacing="-3">THREAT</text>
  <text x="168" y="480" font-family="Arial Black,Impact,sans-serif" font-size="86" font-weight="900" fill="#00c8ff" letter-spacing="-3">INTEL</text>
  <text x="168" y="528" font-family="Arial,sans-serif" font-size="18" font-weight="300" fill="#8a9ab0" letter-spacing="1">AI-curated cybersecurity news for Australian businesses</text>
  <rect x="168" y="550" width="118" height="22" rx="2" fill="#0d1520" stroke="#1e2d3d" stroke-width="1"/>
  <text x="227" y="565" font-family="Courier New,monospace" font-size="9" fill="#4a6070" text-anchor="middle" letter-spacing="2">HACKER NEWS</text>
  <rect x="296" y="550" width="100" height="22" rx="2" fill="#0d1520" stroke="#1e2d3d" stroke-width="1"/>
  <text x="346" y="565" font-family="Courier New,monospace" font-size="9" fill="#4a6070" text-anchor="middle" letter-spacing="2">CROWDSTRIKE</text>
  <rect x="406" y="550" width="62" height="22" rx="2" fill="#0d1520" stroke="#1e2d3d" stroke-width="1"/>
  <text x="437" y="565" font-family="Courier New,monospace" font-size="9" fill="#4a6070" text-anchor="middle" letter-spacing="2">CISA</text>
  <rect x="478" y="550" width="106" height="22" rx="2" fill="#0d1520" stroke="#1e2d3d" stroke-width="1"/>
  <text x="531" y="565" font-family="Courier New,monospace" font-size="9" fill="#4a6070" text-anchor="middle" letter-spacing="2">DARK READING</text>
  <rect x="594" y="550" width="108" height="22" rx="2" fill="#0d1520" stroke="#1e2d3d" stroke-width="1"/>
  <text x="648" y="565" font-family="Courier New,monospace" font-size="9" fill="#4a6070" text-anchor="middle" letter-spacing="2">BLEEPINGCOMP</text>
  <rect x="870" y="60" width="1" height="510" fill="#1e2d3d"/>
  <circle cx="870" cy="145" r="3" fill="#00c8ff"/>
  <rect x="870" y="145" width="260" height="1" fill="#1e2d3d"/>
  <text x="888" y="138" font-family="Courier New,monospace" font-size="9" fill="#4a6070" letter-spacing="3">INTEL SOURCES</text>
  <text x="888" y="168" font-family="Arial Black,sans-serif" font-size="32" font-weight="900" fill="#00c8ff">MULTI-SOURCE</text>
  <circle cx="870" cy="235" r="3" fill="#00ff88"/>
  <rect x="870" y="235" width="260" height="1" fill="#1e2d3d"/>
  <text x="888" y="228" font-family="Courier New,monospace" font-size="9" fill="#4a6070" letter-spacing="3">UPDATES</text>
  <text x="888" y="258" font-family="Arial Black,sans-serif" font-size="32" font-weight="900" fill="#00ff88">CONTINUOUS</text>
  <circle cx="870" cy="325" r="3" fill="#00c8ff"/>
  <rect x="870" y="325" width="260" height="1" fill="#1e2d3d"/>
  <text x="888" y="318" font-family="Courier New,monospace" font-size="9" fill="#4a6070" letter-spacing="3">POWERED BY</text>
  <text x="888" y="348" font-family="Arial Black,sans-serif" font-size="32" font-weight="900" fill="#00c8ff">CLAUDE AI</text>
  <circle cx="870" cy="415" r="3" fill="#00c8ff"/>
  <rect x="870" y="415" width="260" height="1" fill="#1e2d3d"/>
  <text x="888" y="408" font-family="Courier New,monospace" font-size="9" fill="#4a6070" letter-spacing="3">AUDIENCE</text>
  <text x="888" y="438" font-family="Arial Black,sans-serif" font-size="32" font-weight="900" fill="#00c8ff">AU SMBs</text>
  <circle cx="870" cy="505" r="3" fill="#00c8ff"/>
  <rect x="870" y="505" width="260" height="1" fill="#1e2d3d"/>
  <text x="888" y="498" font-family="Courier New,monospace" font-size="9" fill="#4a6070" letter-spacing="3">LANGUAGE</text>
  <text x="888" y="528" font-family="Arial Black,sans-serif" font-size="32" font-weight="900" fill="#00c8ff">SMB-READY</text>
  <circle cx="1105" cy="46" r="5" fill="#00ff88" opacity="0.9"/>
  <text x="1118" y="51" font-family="Courier New,monospace" font-size="11" fill="#00ff88" letter-spacing="3">LIVE</text>
  <text x="600" y="606" font-family="Courier New,monospace" font-size="13" fill="#243447" text-anchor="middle" letter-spacing="4">CISOAI.AU/NEWS</text>
</svg>
